<svg width="177" height="30" viewBox="0 0 177 30" fill="none" xmlns="http://www.w3.org/2000/svg">
<path d="M18.9002 6.64998H21.2502V2.67498C20.1124 2.55666 18.9691 2.49825 17.8252 2.49998C14.4252 2.49998 12.1002 4.57498 12.1002 8.37498V11.65H8.2627V16.1H12.1002V27.5H16.7002V16.1H20.5252L21.1002 11.65H16.7002V8.81248C16.7002 7.49998 17.0502 6.64998 18.9002 6.64998Z" fill="#3A8AC3"/>
<path d="M124.151 3.00017H102.849C102.609 2.99692 102.371 3.03987 102.149 3.12659C101.926 3.2133 101.723 3.34208 101.552 3.50556C101.38 3.66904 101.243 3.86403 101.148 4.07938C101.054 4.29473 101.003 4.52624 101 4.76067V25.862C101.003 26.0964 101.054 26.3279 101.148 26.5433C101.243 26.7586 101.38 26.9536 101.552 27.1171C101.723 27.2806 101.926 27.4094 102.149 27.4961C102.371 27.5828 102.609 27.6258 102.849 27.6225H124.151C124.391 27.6258 124.629 27.5828 124.851 27.4961C125.074 27.4094 125.277 27.2806 125.448 27.1171C125.62 26.9536 125.757 26.7586 125.852 26.5433C125.946 26.3279 125.997 26.0964 126 25.862V4.76067C125.997 4.52624 125.946 4.29473 125.852 4.07938C125.757 3.86403 125.62 3.66904 125.448 3.50556C125.277 3.34208 125.074 3.2133 124.851 3.12659C124.629 3.03987 124.391 2.99692 124.151 3.00017ZM108.583 23.6091H104.81V12.529H108.583V23.6091ZM106.697 10.9778C106.176 10.9778 105.677 10.7755 105.309 10.4153C104.942 10.0551 104.735 9.56662 104.735 9.05726C104.735 8.5479 104.942 8.05941 105.309 7.69924C105.677 7.33907 106.176 7.13672 106.697 7.13672C106.973 7.10605 107.253 7.13285 107.518 7.21537C107.783 7.29789 108.027 7.43427 108.234 7.61558C108.442 7.79689 108.608 8.01904 108.721 8.26748C108.835 8.51592 108.894 8.78506 108.894 9.05726C108.894 9.32947 108.835 9.5986 108.721 9.84705C108.608 10.0955 108.442 10.3176 108.234 10.4989C108.027 10.6803 107.783 10.8166 107.518 10.8992C107.253 10.9817 106.973 11.0085 106.697 10.9778ZM122.19 23.6091H118.417V17.6628C118.417 16.1731 117.876 15.2005 116.506 15.2005C116.081 15.2036 115.668 15.3338 115.322 15.5738C114.976 15.8137 114.713 16.1518 114.569 16.5425C114.471 16.8318 114.428 17.1366 114.443 17.4412V23.5967H110.671C110.671 23.5967 110.671 13.5262 110.671 12.5167H114.443V14.0802C114.786 13.498 115.284 13.0184 115.885 12.693C116.485 12.3676 117.165 12.2087 117.851 12.2335C120.366 12.2335 122.19 13.8217 122.19 17.2319V23.6091Z" fill="#3A8AC3"/>
<path d="M69.175 7.25972C68.8783 7.25972 68.5883 7.34637 68.3416 7.5087C68.095 7.67104 67.9027 7.90177 67.7892 8.17172C67.6756 8.44167 67.6459 8.73872 67.7038 9.0253C67.7617 9.31188 67.9046 9.57512 68.1143 9.78173C68.3241 9.98835 68.5914 10.1291 68.8824 10.1861C69.1733 10.2431 69.4749 10.2138 69.749 10.102C70.0231 9.99017 70.2574 9.80081 70.4222 9.55786C70.587 9.31491 70.675 9.02928 70.675 8.73708C70.675 8.34526 70.517 7.96949 70.2357 7.69243C69.9544 7.41537 69.5728 7.25972 69.175 7.25972ZM74.925 10.2391C74.9007 9.21759 74.7064 8.20696 74.35 7.24741C74.0322 6.42641 73.5375 5.68298 72.9 5.0683C72.281 4.43726 71.5245 3.95311 70.6875 3.6525C69.7158 3.29075 68.6886 3.09506 67.65 3.07387C66.325 3 65.9 3 62.5 3C59.1 3 58.675 3 57.35 3.07387C56.3114 3.09506 55.2842 3.29075 54.3125 3.6525C53.4771 3.95616 52.7212 4.43989 52.1 5.0683C51.4593 5.67793 50.9677 6.42309 50.6625 7.24741C50.2952 8.20442 50.0965 9.21618 50.075 10.2391C50 11.5441 50 11.9627 50 15.3113C50 18.66 50 19.0786 50.075 20.3836C50.0965 21.4065 50.2952 22.4182 50.6625 23.3753C50.9677 24.1996 51.4593 24.9447 52.1 25.5544C52.7212 26.1828 53.4771 26.6665 54.3125 26.9702C55.2842 27.3319 56.3114 27.5276 57.35 27.5488C58.675 27.6227 59.1 27.6227 62.5 27.6227C65.9 27.6227 66.325 27.6227 67.65 27.5488C68.6886 27.5276 69.7158 27.3319 70.6875 26.9702C71.5245 26.6696 72.281 26.1854 72.9 25.5544C73.5403 24.942 74.0354 24.1979 74.35 23.3753C74.7064 22.4157 74.9007 21.4051 74.925 20.3836C74.925 19.0786 75 18.66 75 15.3113C75 11.9627 75 11.5441 74.925 10.2391ZM72.675 20.2359C72.6659 21.0174 72.5222 21.7917 72.25 22.5258C72.0504 23.0616 71.7298 23.5457 71.3125 23.9416C70.9071 24.3485 70.4165 24.6636 69.875 24.8649C69.1296 25.133 68.3435 25.2746 67.55 25.2835C66.3 25.3451 65.8375 25.3574 62.55 25.3574C59.2625 25.3574 58.8 25.3574 57.55 25.2835C56.7261 25.2987 55.9057 25.1738 55.125 24.9142C54.6072 24.7025 54.1392 24.3882 53.75 23.9908C53.3351 23.5953 53.0186 23.1108 52.825 22.575C52.5198 21.8304 52.3506 21.0385 52.325 20.2359C52.325 19.0047 52.25 18.5492 52.25 15.3113C52.25 12.0735 52.25 11.6179 52.325 10.3868C52.3306 9.58786 52.4787 8.79611 52.7625 8.04765C52.9826 7.528 53.3203 7.06478 53.75 6.6934C54.1298 6.2701 54.5991 5.93391 55.125 5.70849C55.8869 5.4377 56.69 5.29616 57.5 5.28991C58.75 5.28991 59.2125 5.21604 62.5 5.21604C65.7875 5.21604 66.25 5.21604 67.5 5.28991C68.2935 5.29887 69.0796 5.44041 69.825 5.70849C70.393 5.91613 70.9029 6.2537 71.3125 6.6934C71.7221 7.07158 72.0422 7.53394 72.25 8.04765C72.5278 8.79733 72.6716 9.58876 72.675 10.3868C72.7375 11.6179 72.75 12.0735 72.75 15.3113C72.75 18.5492 72.7375 19.0047 72.675 20.2359ZM62.5 8.99562C61.2323 8.99805 59.9937 9.37053 58.9408 10.066C57.8879 10.7614 57.068 11.7487 56.5845 12.9029C56.1011 14.0572 55.9759 15.3267 56.2247 16.551C56.4736 17.7753 57.0853 18.8995 57.9826 19.7816C58.8799 20.6636 60.0225 21.2639 61.2661 21.5066C62.5096 21.7493 63.7983 21.6235 64.9693 21.1451C66.1403 20.6667 67.1411 19.8572 67.8452 18.8189C68.5492 17.7805 68.925 16.5599 68.925 15.3113C68.9267 14.4804 68.7615 13.6574 68.439 12.8896C68.1166 12.1218 67.6432 11.4244 67.0461 10.8375C66.449 10.2505 65.7399 9.78561 64.9597 9.46952C64.1796 9.15343 63.3436 8.99237 62.5 8.99562ZM62.5 19.411C61.6767 19.411 60.872 19.1706 60.1874 18.7201C59.5029 18.2696 58.9694 17.6293 58.6544 16.8802C58.3393 16.1311 58.2569 15.3068 58.4175 14.5115C58.5781 13.7163 58.9745 12.9858 59.5567 12.4124C60.1388 11.8391 60.8805 11.4486 61.6879 11.2904C62.4954 11.1322 63.3323 11.2134 64.0929 11.5237C64.8535 11.834 65.5036 12.3595 65.961 13.0337C66.4184 13.7079 66.6625 14.5005 66.6625 15.3113C66.6625 15.8497 66.5548 16.3828 66.3456 16.8802C66.1365 17.3776 65.8299 17.8296 65.4433 18.2102C65.0568 18.5909 64.5979 18.8929 64.0929 19.0989C63.5879 19.305 63.0466 19.411 62.5 19.411Z" fill="#3A8AC3"/>
<path d="M176.994 11.9422C177.05 10.1195 176.695 8.31049 175.961 6.68305C175.463 6.01527 174.771 5.56462 174.007 5.40964C170.848 5.08813 167.675 4.95636 164.502 5.01488C161.341 4.9537 158.18 5.08122 155.031 5.3969C154.408 5.52388 153.832 5.85131 153.373 6.33923C152.351 7.39616 152.237 9.20441 152.124 10.7325C151.959 13.48 151.959 16.2367 152.124 18.9842C152.156 19.8443 152.271 20.698 152.464 21.531C152.601 22.1742 152.878 22.7692 153.271 23.2629C153.733 23.7766 154.323 24.1227 154.963 24.2561C157.411 24.595 159.878 24.7355 162.344 24.6764C166.319 24.74 169.806 24.6764 173.928 24.3198C174.584 24.1946 175.19 23.8481 175.666 23.3265C175.983 22.9699 176.221 22.5333 176.358 22.0531C176.764 20.6557 176.964 19.1932 176.949 17.7235C176.994 17.0104 176.994 12.7063 176.994 11.9422ZM161.936 18.4876V10.6052L168.659 14.5655C166.773 15.737 164.286 17.0614 161.936 18.4876Z" fill="#3A8AC3"/>
</svg>
