<svg width="40" height="38" viewBox="0 0 40 38" fill="none" xmlns="http://www.w3.org/2000/svg">
<path d="M30.68 6.574C30.2053 6.574 29.7413 6.70772 29.3466 6.95825C28.952 7.20878 28.6443 7.56487 28.4627 7.98148C28.281 8.3981 28.2335 8.85653 28.3261 9.29881C28.4187 9.74108 28.6473 10.1473 28.9829 10.4662C29.3186 10.7851 29.7462 11.0022 30.2118 11.0902C30.6773 11.1782 31.1599 11.133 31.5984 10.9604C32.037 10.7879 32.4118 10.4956 32.6755 10.1207C32.9392 9.74576 33.08 9.30494 33.08 8.854C33.08 8.24931 32.8271 7.66938 32.3771 7.2418C31.927 6.81421 31.3165 6.574 30.68 6.574ZM39.88 11.172C39.8411 9.59557 39.5303 8.03587 38.96 6.555C38.4515 5.28795 37.66 4.14063 36.64 3.192C35.6496 2.21811 34.4391 1.47094 33.1 1.007C31.5453 0.448705 29.9017 0.146699 28.24 0.114C26.12 -1.03486e-07 25.44 0 20 0C14.56 0 13.88 -1.03486e-07 11.76 0.114C10.0983 0.146699 8.45469 0.448705 6.9 1.007C5.56335 1.47563 4.35387 2.22217 3.36 3.192C2.33485 4.13284 1.54835 5.28284 1.06 6.555C0.472322 8.03195 0.15442 9.59339 0.12 11.172C-1.07288e-07 13.186 0 13.832 0 19C0 24.168 -1.07288e-07 24.814 0.12 26.828C0.15442 28.4066 0.472322 29.968 1.06 31.445C1.54835 32.7172 2.33485 33.8672 3.36 34.808C4.35387 35.7778 5.56335 36.5244 6.9 36.993C8.45469 37.5513 10.0983 37.8533 11.76 37.886C13.88 38 14.56 38 20 38C25.44 38 26.12 38 28.24 37.886C29.9017 37.8533 31.5453 37.5513 33.1 36.993C34.4391 36.5291 35.6496 35.7819 36.64 34.808C37.6645 33.8629 38.4567 32.7146 38.96 31.445C39.5303 29.9641 39.8411 28.4044 39.88 26.828C39.88 24.814 40 24.168 40 19C40 13.832 40 13.186 39.88 11.172ZM36.28 26.6C36.2654 27.8061 36.0355 29.001 35.6 30.134C35.2807 30.9609 34.7678 31.708 34.1 32.319C33.4513 32.947 32.6665 33.4332 31.8 33.744C30.6074 34.1577 29.3495 34.3762 28.08 34.39C26.08 34.485 25.34 34.504 20.08 34.504C14.82 34.504 14.08 34.504 12.08 34.39C10.7618 34.4134 9.44919 34.2206 8.2 33.82C7.37156 33.4933 6.62271 33.0083 6 32.395C5.33618 31.7846 4.82969 31.0369 4.52 30.21C4.03171 29.0608 3.76089 27.8387 3.72 26.6C3.72 24.7 3.6 23.997 3.6 19C3.6 14.003 3.6 13.3 3.72 11.4C3.72896 10.167 3.9659 8.9451 4.42 7.79C4.77209 6.98803 5.31253 6.27315 6 5.7C6.60763 5.04672 7.35858 4.52788 8.2 4.18C9.4191 3.76208 10.704 3.54365 12 3.534C14 3.534 14.74 3.42 20 3.42C25.26 3.42 26 3.42 28 3.534C29.2695 3.54783 30.5274 3.76627 31.72 4.18C32.6289 4.50044 33.4446 5.02141 34.1 5.7C34.7554 6.28364 35.2675 6.99719 35.6 7.79C36.0445 8.94697 36.2746 10.1684 36.28 11.4C36.38 13.3 36.4 14.003 36.4 19C36.4 23.997 36.38 24.7 36.28 26.6ZM20 9.253C17.9716 9.25676 15.9899 9.8316 14.3053 10.9049C12.6207 11.9782 11.3088 13.5018 10.5353 15.2831C9.76178 17.0645 9.56145 19.0237 9.95959 20.9132C10.3577 22.8026 11.3365 24.5376 12.7722 25.8989C14.2078 27.2601 16.036 28.1865 18.0257 28.5611C20.0154 28.9356 22.0773 28.7415 23.9509 28.0032C25.8245 27.2649 27.4258 26.0156 28.5523 24.4132C29.6788 22.8107 30.28 20.927 30.28 19C30.2826 17.7177 30.0184 16.4476 29.5025 15.2626C28.9866 14.0777 28.2291 13.0013 27.2737 12.0955C26.3184 11.1897 25.1839 10.4722 23.9356 9.98437C22.6873 9.49654 21.3498 9.24799 20 9.253ZM20 25.327C18.6828 25.327 17.3951 24.9559 16.2999 24.2607C15.2047 23.5655 14.351 22.5773 13.847 21.4212C13.3429 20.2651 13.211 18.993 13.468 17.7657C13.7249 16.5383 14.3593 15.411 15.2907 14.5261C16.2221 13.6413 17.4088 13.0387 18.7007 12.7946C19.9926 12.5504 21.3317 12.6757 22.5487 13.1546C23.7656 13.6335 24.8058 14.4444 25.5376 15.4849C26.2694 16.5254 26.66 17.7486 26.66 19C26.66 19.8309 26.4877 20.6536 26.153 21.4212C25.8183 22.1889 25.3278 22.8863 24.7093 23.4739C24.0909 24.0614 23.3567 24.5274 22.5487 24.8454C21.7406 25.1633 20.8746 25.327 20 25.327Z" fill="#3A8AC3"/>
</svg>
