<svg width="25" height="25" viewBox="0 0 25 25" fill="none" xmlns="http://www.w3.org/2000/svg">
<path d="M23.1514 0.000172148H1.84859C1.60913 -0.00308369 1.37135 0.0398726 1.14885 0.126588C0.926346 0.213303 0.72347 0.342079 0.551808 0.50556C0.380145 0.669042 0.24306 0.864027 0.14838 1.07938C0.0537002 1.29473 0.00328017 1.52624 0 1.76067V22.862C0.00328017 23.0964 0.0537002 23.3279 0.14838 23.5433C0.24306 23.7586 0.380145 23.9536 0.551808 24.1171C0.72347 24.2806 0.926346 24.4094 1.14885 24.4961C1.37135 24.5828 1.60913 24.6258 1.84859 24.6225H23.1514C23.3909 24.6258 23.6286 24.5828 23.8511 24.4961C24.0737 24.4094 24.2765 24.2806 24.4482 24.1171C24.6199 23.9536 24.7569 23.7586 24.8516 23.5433C24.9463 23.3279 24.9967 23.0964 25 22.862V1.76067C24.9967 1.52624 24.9463 1.29473 24.8516 1.07938C24.7569 0.864027 24.6199 0.669042 24.4482 0.50556C24.2765 0.342079 24.0737 0.213303 23.8511 0.126588C23.6286 0.0398726 23.3909 -0.00308369 23.1514 0.000172148ZM7.583 20.6091H3.81036V9.52901H7.583V20.6091ZM5.69668 7.97781C5.17639 7.97781 4.6774 7.77546 4.3095 7.41529C3.9416 7.05512 3.73491 6.56662 3.73491 6.05726C3.73491 5.5479 3.9416 5.05941 4.3095 4.69924C4.6774 4.33907 5.17639 4.13672 5.69668 4.13672C5.97296 4.10605 6.25274 4.13285 6.5177 4.21537C6.78266 4.29789 7.02683 4.43427 7.23423 4.61558C7.44162 4.79689 7.60755 5.01904 7.72117 5.26748C7.83478 5.51592 7.89351 5.78506 7.89351 6.05726C7.89351 6.32947 7.83478 6.5986 7.72117 6.84705C7.60755 7.09549 7.44162 7.31764 7.23423 7.49895C7.02683 7.68026 6.78266 7.81664 6.5177 7.89916C6.25274 7.98168 5.97296 8.00848 5.69668 7.97781ZM21.1896 20.6091H17.417V14.6628C17.417 13.1731 16.8763 12.2005 15.5055 12.2005C15.0813 12.2036 14.6682 12.3338 14.322 12.5738C13.9757 12.8137 13.7129 13.1518 13.5689 13.5425C13.4705 13.8318 13.4279 14.1366 13.4432 14.4412V20.5967H9.67052C9.67052 20.5967 9.67052 10.5262 9.67052 9.5167H13.4432V11.0802C13.7859 10.498 14.2843 10.0184 14.8849 9.693C15.4854 9.36759 16.1652 9.20874 16.8511 9.23354C19.3662 9.23354 21.1896 10.8217 21.1896 14.2319V20.6091Z" fill="#3A8AC3"/>
</svg>
