<svg width="25" height="25" viewBox="0 0 25 25" fill="none" xmlns="http://www.w3.org/2000/svg">
<path d="M19.175 4.25972C18.8783 4.25972 18.5883 4.34637 18.3416 4.5087C18.095 4.67104 17.9027 4.90177 17.7892 5.17172C17.6756 5.44167 17.6459 5.73872 17.7038 6.0253C17.7617 6.31188 17.9046 6.57512 18.1143 6.78173C18.3241 6.98835 18.5914 7.12905 18.8824 7.18606C19.1733 7.24306 19.4749 7.2138 19.749 7.10199C20.0231 6.99017 20.2574 6.80081 20.4222 6.55786C20.587 6.31491 20.675 6.02928 20.675 5.73708C20.675 5.34526 20.517 4.96949 20.2357 4.69243C19.9544 4.41537 19.5728 4.25972 19.175 4.25972ZM24.925 7.23907C24.9007 6.21759 24.7064 5.20696 24.35 4.24741C24.0322 3.42641 23.5375 2.68298 22.9 2.0683C22.281 1.43726 21.5245 0.953115 20.6875 0.652501C19.7158 0.290745 18.6886 0.0950558 17.65 0.0738679C16.325 -6.70552e-08 15.9 0 12.5 0C9.1 0 8.675 -6.70552e-08 7.35 0.0738679C6.31144 0.0950558 5.28418 0.290745 4.3125 0.652501C3.4771 0.956158 2.72117 1.43989 2.1 2.0683C1.45928 2.67793 0.967721 3.42309 0.6625 4.24741C0.295201 5.20442 0.0965125 6.21618 0.0749999 7.23907C-6.70552e-08 8.54407 0 8.96265 0 12.3113C0 15.66 -6.70552e-08 16.0786 0.0749999 17.3836C0.0965125 18.4065 0.295201 19.4182 0.6625 20.3753C0.967721 21.1996 1.45928 21.9447 2.1 22.5544C2.72117 23.1828 3.4771 23.6665 4.3125 23.9702C5.28418 24.3319 6.31144 24.5276 7.35 24.5488C8.675 24.6227 9.1 24.6227 12.5 24.6227C15.9 24.6227 16.325 24.6227 17.65 24.5488C18.6886 24.5276 19.7158 24.3319 20.6875 23.9702C21.5245 23.6696 22.281 23.1854 22.9 22.5544C23.5403 21.942 24.0354 21.1979 24.35 20.3753C24.7064 19.4157 24.9007 18.4051 24.925 17.3836C24.925 16.0786 25 15.66 25 12.3113C25 8.96265 25 8.54407 24.925 7.23907ZM22.675 17.2359C22.6659 18.0174 22.5222 18.7917 22.25 19.5258C22.0504 20.0616 21.7298 20.5457 21.3125 20.9416C20.9071 21.3485 20.4165 21.6636 19.875 21.8649C19.1296 22.133 18.3435 22.2746 17.55 22.2835C16.3 22.3451 15.8375 22.3574 12.55 22.3574C9.2625 22.3574 8.8 22.3574 7.55 22.2835C6.72611 22.2987 5.90574 22.1738 5.125 21.9142C4.60723 21.7025 4.13919 21.3882 3.75 20.9908C3.33511 20.5953 3.01855 20.1108 2.825 19.575C2.51982 18.8304 2.35055 18.0385 2.325 17.2359C2.325 16.0047 2.25 15.5492 2.25 12.3113C2.25 9.07345 2.25 8.61794 2.325 7.3868C2.3306 6.58786 2.47869 5.79611 2.7625 5.04765C2.98256 4.528 3.32033 4.06478 3.75 3.6934C4.12977 3.2701 4.59911 2.93391 5.125 2.70849C5.88694 2.4377 6.69 2.29616 7.5 2.28991C8.75 2.28991 9.2125 2.21604 12.5 2.21604C15.7875 2.21604 16.25 2.21604 17.5 2.28991C18.2935 2.29887 19.0796 2.44041 19.825 2.70849C20.393 2.91613 20.9029 3.2537 21.3125 3.6934C21.7221 4.07158 22.0422 4.53394 22.25 5.04765C22.5278 5.79733 22.6716 6.58876 22.675 7.3868C22.7375 8.61794 22.75 9.07345 22.75 12.3113C22.75 15.5492 22.7375 16.0047 22.675 17.2359ZM12.5 5.99562C11.2323 5.99805 9.9937 6.37053 8.94082 7.06599C7.88793 7.76145 7.06797 8.74868 6.58454 9.90294C6.10111 11.0572 5.9759 12.3267 6.22474 13.551C6.47358 14.7753 7.0853 15.8995 7.98259 16.7816C8.8799 17.6636 10.0225 18.2639 11.2661 18.5066C12.5096 18.7493 13.7983 18.6235 14.9693 18.1451C16.1403 17.6667 17.1411 16.8572 17.8452 15.8189C18.5492 14.7805 18.925 13.5599 18.925 12.3113C18.9267 11.4804 18.7615 10.6574 18.439 9.88964C18.1166 9.12185 17.6432 8.42441 17.0461 7.83746C16.449 7.2505 15.7399 6.78561 14.9597 6.46952C14.1796 6.15343 13.3436 5.99237 12.5 5.99562ZM12.5 16.411C11.6767 16.411 10.872 16.1706 10.1874 15.7201C9.50292 15.2696 8.9694 14.6293 8.65435 13.8802C8.3393 13.1311 8.25687 12.3068 8.41748 11.5115C8.57809 10.7163 8.97453 9.98578 9.55667 9.41243C10.1388 8.83908 10.8805 8.44862 11.6879 8.29043C12.4954 8.13225 13.3323 8.21344 14.0929 8.52373C14.8535 8.83403 15.5036 9.35949 15.961 10.0337C16.4184 10.7079 16.6625 11.5005 16.6625 12.3113C16.6625 12.8497 16.5548 13.3828 16.3456 13.8802C16.1365 14.3776 15.8299 14.8296 15.4433 15.2102C15.0568 15.5909 14.5979 15.8929 14.0929 16.0989C13.5879 16.305 13.0466 16.411 12.5 16.411Z" fill="#3A8AC3"/>
</svg>
