<svg width="40" height="38" viewBox="0 0 40 38" fill="none" xmlns="http://www.w3.org/2000/svg">
<path d="M37.0423 0.000265675H2.95775C2.5746 -0.00475904 2.19417 0.0615351 1.83816 0.195362C1.48215 0.329189 1.15755 0.527927 0.882892 0.780227C0.608233 1.03253 0.388896 1.33345 0.237408 1.6658C0.0859203 1.99815 0.00524828 2.35543 0 2.71723V35.2828C0.00524828 35.6446 0.0859203 36.0018 0.237408 36.3342C0.388896 36.6665 0.608233 36.9675 0.882892 37.2198C1.15755 37.4721 1.48215 37.6708 1.83816 37.8046C2.19417 37.9385 2.5746 38.0048 2.95775 37.9997H37.0423C37.4254 38.0048 37.8058 37.9385 38.1618 37.8046C38.5178 37.6708 38.8424 37.4721 39.1171 37.2198C39.3918 36.9675 39.6111 36.6665 39.7626 36.3342C39.9141 36.0018 39.9948 35.6446 40 35.2828V2.71723C39.9948 2.35543 39.9141 1.99815 39.7626 1.6658C39.6111 1.33345 39.3918 1.03253 39.1171 0.780227C38.8424 0.527927 38.5178 0.329189 38.1618 0.195362C37.8058 0.0615351 37.4254 -0.00475904 37.0423 0.000265675ZM12.1328 31.8058H6.09658V14.7061H12.1328V31.8058ZM9.11469 12.3121C8.28222 12.3121 7.48384 11.9998 6.8952 11.444C6.30655 10.8881 5.97586 10.1342 5.97586 9.34813C5.97586 8.56204 6.30655 7.80815 6.8952 7.2523C7.48384 6.69645 8.28222 6.38418 9.11469 6.38418C9.55673 6.33684 10.0044 6.3782 10.4283 6.50555C10.8523 6.63291 11.2429 6.84338 11.5748 7.12319C11.9066 7.40301 12.1721 7.74585 12.3539 8.12927C12.5356 8.51269 12.6296 8.92804 12.6296 9.34813C12.6296 9.76823 12.5356 10.1836 12.3539 10.567C12.1721 10.9504 11.9066 11.2933 11.5748 11.5731C11.2429 11.8529 10.8523 12.0634 10.4283 12.1907C10.0044 12.3181 9.55673 12.3594 9.11469 12.3121ZM33.9034 31.8058H27.8672V22.629C27.8672 20.33 27.002 18.829 24.8089 18.829C24.1301 18.8337 23.4692 19.0347 22.9152 19.405C22.3611 19.7753 21.9406 20.2971 21.7103 20.9C21.5528 21.3465 21.4846 21.8168 21.5091 22.287V31.7868H15.4728C15.4728 31.7868 15.4728 16.245 15.4728 14.6871H21.5091V17.1C22.0574 16.2015 22.8549 15.4613 23.8158 14.9591C24.7766 14.4569 25.8643 14.2118 26.9618 14.2501C30.9859 14.2501 33.9034 16.701 33.9034 21.964V31.8058Z" fill="#3A8AC3"/>
</svg>
