<svg width="40" height="31" viewBox="0 0 40 31" fill="none" xmlns="http://www.w3.org/2000/svg">
<path d="M39.9908 10.6353C40.0806 7.85938 39.5119 5.10421 38.3373 2.62564C37.5403 1.60862 36.4343 0.922291 35.212 0.686247C30.1561 0.1966 25.0793 -0.00408995 20.0034 0.0850364C14.946 -0.00813519 9.88744 0.186079 4.84933 0.666854C3.85327 0.860243 2.93148 1.35891 2.19646 2.102C0.561129 3.7117 0.379426 6.46563 0.197722 8.7929C-0.0659074 12.9773 -0.0659074 17.1758 0.197722 21.3601C0.250289 22.67 0.433017 23.9702 0.742833 25.2389C0.961922 26.2184 1.40518 27.1247 2.03293 27.8765C2.77295 28.659 3.7162 29.186 4.74031 29.3892C8.65768 29.9053 12.6048 30.1192 16.551 30.0292C22.9107 30.1262 28.489 30.0292 35.0848 29.4862C36.134 29.2954 37.1039 28.7677 37.8649 27.9735C38.3736 27.4303 38.7535 26.7654 38.9733 26.0341C39.6231 23.9058 39.9422 21.6784 39.9181 19.4402C39.9908 18.3541 39.9908 11.799 39.9908 10.6353ZM15.8969 20.6038V8.59896L26.6538 14.6305C23.6375 16.4147 19.6582 18.4317 15.8969 20.6038Z" fill="#3A8AC3"/>
</svg>
