<svg width="25" height="20" viewBox="0 0 25 20" fill="none" xmlns="http://www.w3.org/2000/svg">
<path d="M24.9942 6.94224C25.0504 5.11955 24.6949 3.31049 23.9608 1.68305C23.4627 1.01527 22.7715 0.564623 22.0075 0.409635C18.8476 0.088131 15.6746 -0.0436431 12.5021 0.0148776C9.34122 -0.0462992 6.17965 0.0812227 3.03083 0.396902C2.40829 0.523882 1.83218 0.851309 1.37279 1.33923C0.350706 2.39616 0.237141 4.20441 0.123576 5.7325C-0.0411921 8.47997 -0.0411921 11.2367 0.123576 13.9842C0.156431 14.8443 0.270636 15.698 0.464271 16.531C0.601201 17.1742 0.87824 17.7692 1.27058 18.2629C1.73309 18.7766 2.32263 19.1227 2.96269 19.2561C5.41105 19.595 7.87802 19.7355 10.3444 19.6764C14.3192 19.74 17.8056 19.6764 21.928 19.3198C22.5838 19.1946 23.1899 18.8481 23.6655 18.3265C23.9835 17.9699 24.221 17.5333 24.3583 17.0531C24.7644 15.6557 24.9639 14.1932 24.9488 12.7235C24.9942 12.0104 24.9942 7.70629 24.9942 6.94224ZM9.93557 13.4876V5.60516L16.6586 9.56547C14.7734 10.737 12.2864 12.0614 9.93557 13.4876Z" fill="#3A8AC3"/>
</svg>
